<?xml version="1.0" standalone="no"?>
<!DOCTYPE svg PUBLIC "-//W3C//DTD SVG 20010904//EN"
 "http://www.w3.org/TR/2001/REC-SVG-20010904/DTD/svg10.dtd">
<svg version="1.0" xmlns="http://www.w3.org/2000/svg"
 width="512.000000pt" height="512.000000pt" viewBox="0 0 512.000000 512.000000"
 preserveAspectRatio="xMidYMid meet">

<g transform="translate(0.000000,512.000000) scale(0.100000,-0.100000)"
fill="#000000" stroke="none">
<path d="M0 2560 l0 -2560 2560 0 2560 0 0 2560 0 2560 -2560 0 -2560 0 0
-2560z m4960 -143 c0 -2 -98 -212 -218 -468 l-218 -464 -385 -5 c-410 -5 -423
-7 -435 -55 -6 -24 -8 -25 -103 -25 l-96 0 -17 30 c-9 17 -29 35 -43 40 -17 6
-540 10 -1469 10 l-1443 0 -72 89 c-96 119 -153 207 -206 316 -38 79 -95 239
-95 266 0 5 742 9 1988 9 l1989 0 44 23 c58 31 97 88 108 156 5 33 16 60 27
68 14 10 87 13 331 13 172 0 313 -1 313 -3z"/>
</g>
</svg>
